<svg width="100" height="100" viewBox="0 0 100 100" fill="none" xmlns="http://www.w3.org/2000/svg">
<path d="M47.8514 4.29724C21.4238 4.29724 0 25.7211 0 52.1486C0 53.674 0.0746094 55.1818 0.214258 56.6709L44.035 99.8484C45.2941 99.9478 46.5666 100 47.8514 100C74.2789 100 95.7027 78.5763 95.7027 52.1486C95.7027 25.7209 74.2789 4.29724 47.8514 4.29724Z" fill="#3B3868"/>
<path d="M29.5349 75.032C28.513 75.6221 27.2093 75.4578 26.3644 74.6326L26.1816 74.4539L22.1638 76.7736L30.1419 85.131C30.3177 85.0463 30.4923 84.9568 30.6642 84.8576C34.4281 82.6846 35.7177 77.8717 33.5447 74.1076C33.3398 73.7529 33.1117 73.4205 32.8632 73.1105L29.5349 75.032Z" fill="#D3DCFB"/>
<path d="M30.142 85.1311C30.3178 85.0463 30.4924 84.9568 30.6643 84.8576C32.074 84.0438 33.1365 82.8594 33.8002 81.4986C29.4205 80.6994 28.8623 77.2022 28.8961 75.2945C28.0115 75.5291 27.0412 75.2936 26.3647 74.6328L26.1818 74.4541L22.1641 76.7738L30.142 85.1311Z" fill="#BEC8F7"/>
<path d="M11.1293 82.8258C19.1863 92.46 30.9619 98.8768 44.2506 99.8656C44.0857 99.4096 43.8277 98.9793 43.4715 98.6061L22.3845 76.5162L13.0949 81.8797C12.4545 82.2494 11.7972 82.5639 11.1293 82.8258Z" fill="#E9EFFF"/>
<path d="M30.4565 84.9721L22.3846 76.5162L13.095 81.8797C12.4545 82.2494 11.7973 82.5639 11.1292 82.8258C14.4573 86.8055 18.4213 90.234 22.8629 92.9598C22.0748 84.5817 30.4565 84.9721 30.4565 84.9721Z" fill="#D3DCFB"/>
<path d="M9.16406 51.6326L6.40292 46.8504C5.56464 45.3985 3.70839 44.9012 2.25644 45.7393C0.804682 46.5776 0.307221 48.4338 1.1455 49.8858L3.90664 54.668L9.16406 51.6326Z" fill="#E9EFFF"/>
<path d="M6.68804 47.3439C6.69976 47.4574 6.70562 47.5726 6.70562 47.6892C6.70562 49.541 5.20444 51.0422 3.35288 51.0422C2.66128 51.0422 2.0189 50.8326 1.48511 50.4738L3.90659 54.668L9.16401 51.6326L6.68804 47.3439Z" fill="#D3DCFB"/>
<path d="M41.6678 67.0319C50.8602 63.3664 60.7189 62.8381 69.8908 65.0774L42.0355 16.8307C39.3889 25.8936 34.002 34.1672 26.2314 40.2953C26.8037 40.5403 27.3057 40.9623 27.6408 41.5428L41.2922 65.1877C41.6271 65.7682 41.7418 66.4139 41.6678 67.0319Z" fill="#D3DCFB"/>
<path d="M51.7781 33.7053L42.0355 16.8307C39.3889 25.8936 34.002 34.1672 26.2314 40.2953C26.8037 40.5403 27.3057 40.9623 27.6408 41.5428L34.2889 53.0576C42.0705 47.4279 48.0676 40.6471 51.7781 33.7053Z" fill="#BEC8F7"/>
<path d="M26.1962 73.9033L12.5449 50.2584C12.4048 50.016 12.3058 49.7615 12.2398 49.5029L0.195068 56.457C1.10151 66.6117 5.17847 75.8524 11.4312 83.1832C12.0726 82.9274 12.7041 82.6246 13.3197 82.2693L26.698 74.5455C26.507 74.3586 26.3363 74.1457 26.1962 73.9033Z" fill="#FF7186"/>
<path d="M18.7146 62.259L18.4099 60.417L12.5449 50.2584C12.4048 50.016 12.3058 49.7615 12.2398 49.5029L0.195068 56.457C0.631592 61.3484 1.80581 66.0266 3.60249 70.3826C4.05737 66.5281 6.74722 65.4973 6.74722 65.4973C6.74722 65.4973 7.33315 65.2369 11.9556 62.6024C16.5781 59.9678 18.7146 62.259 18.7146 62.259Z" fill="#FF4155"/>
<path d="M40.5892 69.0393L29.7034 75.324C28.2761 76.1481 26.4511 75.659 25.6271 74.2318L11.9757 50.5869C11.1517 49.1596 11.6408 47.3346 13.0679 46.5106L23.9536 40.2256C25.381 39.4016 27.206 39.8906 28.03 41.3178L41.6814 64.9627C42.5054 66.3903 42.0165 68.2152 40.5892 69.0393Z" fill="#FF4155"/>
<path d="M28.0301 41.3179C27.206 39.8906 25.381 39.4017 23.9539 40.2258L13.0682 46.5107C11.6408 47.3347 11.1517 49.1597 11.976 50.5871L18.7148 62.259C19.4842 58.858 22.306 60.3861 22.306 60.3861L31.3517 55.1636C31.7697 51.8939 34.6545 52.7914 34.6545 52.7914L28.0301 41.3179Z" fill="#E80054"/>
<path d="M18.0429 51.4879C17.5201 51.4879 17.0117 51.2166 16.7316 50.7312C16.3138 50.0078 16.5619 49.0826 17.2853 48.665L23.7111 44.9551C24.4345 44.5373 25.3597 44.7853 25.7773 45.5088C26.1951 46.2322 25.9472 47.1574 25.2236 47.575L18.7978 51.2849C18.5597 51.4224 18.2996 51.4879 18.0429 51.4879Z" fill="#FF7186"/>
<path d="M20.8301 56.3155C20.3072 56.3155 19.7988 56.0442 19.5188 55.5588C19.101 54.8354 19.3488 53.9102 20.0725 53.4926L26.4981 49.7827C27.2215 49.3647 28.1467 49.6129 28.5643 50.3364C28.982 51.0598 28.734 51.985 28.0106 52.4026L21.5848 56.1125C21.3469 56.25 21.0867 56.3155 20.8301 56.3155Z" fill="#FF7186"/>
<path d="M23.6172 61.1428C23.0943 61.1428 22.5859 60.8715 22.3058 60.3862C21.888 59.6627 22.1361 58.7375 22.8595 58.3199L29.2853 54.61C30.0088 54.192 30.934 54.4403 31.3515 55.1637C31.7691 55.8871 31.5213 56.8123 30.7978 57.2299L24.372 60.9399C24.1339 61.0774 23.8738 61.1428 23.6172 61.1428Z" fill="#FF7186"/>
<path d="M26.4043 65.9701C25.8815 65.9701 25.3731 65.6988 25.093 65.2134C24.6752 64.49 24.9231 63.5648 25.6467 63.1472L32.0723 59.4373C32.7957 59.0193 33.7209 59.2675 34.1385 59.991C34.5563 60.7144 34.3082 61.6396 33.5848 62.0572L27.159 65.7671C26.9211 65.9046 26.6609 65.9701 26.4043 65.9701Z" fill="#FF7186"/>
<path d="M29.1914 70.7975C28.6686 70.7975 28.1602 70.5262 27.8801 70.0408C27.4623 69.3174 27.7102 68.3922 28.4338 67.9746L34.8596 64.2648C35.583 63.8469 36.5082 64.0951 36.9258 64.8185C37.3436 65.542 37.0957 66.4672 36.3721 66.8848L29.9463 70.5947C29.7082 70.7322 29.4481 70.7975 29.1914 70.7975Z" fill="#FF7186"/>
<path d="M87.4621 23.8332C87.158 23.8332 86.8878 23.6875 86.7212 23.433L84.7902 20.4885C84.5621 20.1407 84.1775 19.933 83.7615 19.933H74.3591C72.7888 19.933 71.5113 18.6553 71.5113 17.085V10.1569H64.7666C63.0337 10.1569 61.616 11.5746 61.616 13.3074V27.2422C61.616 28.975 63.0337 30.3926 64.7666 30.3926H67.5707C67.8833 30.3926 68.1749 30.55 68.3464 30.8116L70.2775 33.7561C70.7468 34.4717 71.7958 34.4717 72.2652 33.7561L74.1962 30.8116C74.3677 30.55 74.6593 30.3926 74.9718 30.3926H84.374C86.1068 30.3926 87.5246 28.9748 87.5246 27.242V23.8295C87.5039 23.8309 87.4832 23.8332 87.4621 23.8332Z" fill="#FFB332"/>
<path d="M77.6946 28.142V22.408C77.6946 21.2942 78.4666 20.3543 79.5012 20.0903V19.9332H74.3592C72.7887 19.9332 71.5112 18.6555 71.5112 17.0852V10.1569H64.7664C63.0336 10.1569 61.6158 11.5746 61.6158 13.3074V27.2422C61.6158 28.975 63.0336 30.3926 64.7664 30.3926H67.5705C67.8832 30.3926 68.1748 30.55 68.3463 30.8116L70.2774 33.7561C70.7467 34.4717 71.7957 34.4717 72.2651 33.7561L74.1961 30.8116C74.3676 30.55 74.6592 30.3926 74.9717 30.3926H79.2817C78.3596 30.0592 77.6946 29.1756 77.6946 28.142Z" fill="#FF9100"/>
<path d="M83.2633 44.6807C83.5371 44.4069 83.9013 44.2557 84.2887 44.2557C84.6762 44.2557 85.0404 44.4067 85.3142 44.6807L91.4799 50.8463L94.9875 47.3385C95.5531 46.7731 96.4732 46.7731 97.0387 47.3385L100 50.2996V37.6885C100 36.7082 99.2054 35.9137 98.2252 35.9137H79.7371C78.7568 35.9137 77.9623 36.7082 77.9623 37.6885V49.9815L83.2633 44.6807Z" fill="#8AE1FF"/>
<path d="M84.4166 43.0989V38.2574C84.4166 36.9684 85.4713 35.9137 86.7603 35.9137H79.7371C78.7568 35.9137 77.9623 36.7082 77.9623 37.6885V49.9815L83.2633 44.6805C83.5371 44.4067 83.9013 44.2555 84.2887 44.2555C84.4586 44.2555 84.6234 44.2862 84.7789 44.3418C84.5508 43.9809 84.4166 43.5553 84.4166 43.0989Z" fill="#42C3FC"/>
<path d="M98.8615 57.8321C98.7925 57.7231 98.7116 57.6194 98.6167 57.5244L85.5435 44.4512C84.8503 43.758 83.7267 43.758 83.0335 44.4512L77.962 49.5227V56.1766C77.962 57.1569 78.7566 57.9514 79.7368 57.9514H98.2249C98.4497 57.9514 98.6636 57.908 98.8615 57.8321Z" fill="#65D33C"/>
<path d="M84.9698 49.5793C82.8214 51.7277 80.2335 54.1203 80.2335 54.1203C80.2335 54.1203 79.0652 54.8621 77.962 54.2734V56.1767C77.962 57.157 78.7566 57.9515 79.7368 57.9515H98.2249C98.4493 57.9515 98.6634 57.9082 98.8612 57.8322C98.7923 57.7232 98.7114 57.6195 98.6165 57.5246L85.5433 44.4514C85.5435 44.4512 87.1183 47.4308 84.9698 49.5793Z" fill="#55BF28"/>
<path d="M97.2682 47.1092C96.575 46.4161 95.4514 46.4161 94.7582 47.1092L83.916 57.9514H98.2252C99.2055 57.9514 100 57.1569 100 56.1766V49.8411L97.2682 47.1092Z" fill="#89E56A"/>
<path d="M94.0791 42.0313C94.0791 43.4391 92.9379 44.5801 91.5301 44.5801C90.1223 44.5801 88.9811 43.4389 88.9811 42.0313C88.9811 40.6234 90.1223 39.4822 91.5301 39.4822C92.9379 39.4822 94.0791 40.6236 94.0791 42.0313Z" fill="#FFDD40"/>
<path d="M93.2746 41.5523C93.2746 42.2102 92.7414 42.7434 92.0836 42.7434C91.4258 42.7434 90.8926 42.2102 90.8926 41.5523C90.8926 40.8945 91.4258 40.3613 92.0836 40.3613C92.7412 40.3611 93.2746 40.8945 93.2746 41.5523Z" fill="#FCECA9"/>
<path d="M73.7897 66.566C72.338 67.4043 70.4815 66.9068 69.6432 65.455L41.5848 16.8564C40.7466 15.4045 41.244 13.5482 42.6958 12.7099C44.1475 11.8718 46.004 12.3691 46.8423 13.8209L74.9007 62.4195C75.7389 63.8714 75.2415 65.7279 73.7897 66.566Z" fill="#E9EFFF"/>
<path d="M53.2898 30.8185C54.3347 30.2152 55.5576 30.2043 56.5742 30.6777L46.8419 13.8211C46.0037 12.3693 44.1472 11.8719 42.6955 12.7101C41.2437 13.5484 40.7462 15.4047 41.5843 16.8566L51.515 34.0568C51.4603 32.7736 52.1009 31.5049 53.2898 30.8185Z" fill="#D3DCFB"/>
<path d="M74.3592 0H93.9668C95.6996 0 97.1172 1.41777 97.1172 3.15039V17.0852C97.1172 18.818 95.6994 20.2355 93.9668 20.2355H91.1625C90.8498 20.2355 90.5582 20.393 90.3867 20.6545L88.4556 23.599C87.9863 24.3147 86.9373 24.3147 86.4679 23.599L84.5369 20.6545C84.3654 20.393 84.0738 20.2355 83.7611 20.2355H74.3588C72.626 20.2355 71.2084 18.8178 71.2084 17.085V3.15039C71.2086 1.41777 72.6263 0 74.3592 0V0Z" fill="#FFDD40"/>
<path d="M79.7498 17.0852V3.15039C79.7498 1.41758 81.1675 0 82.9002 0H74.3591C72.6263 0 71.2087 1.41777 71.2087 3.15039V17.0852C71.2087 18.818 72.6265 20.2357 74.3591 20.2357H82.9002C81.1673 20.2355 79.7498 18.818 79.7498 17.0852Z" fill="#FFB332"/>
<path d="M91.1913 6.74883H81.228C80.3927 6.74883 79.7153 6.07168 79.7153 5.23613C79.7153 4.40059 80.3925 3.72363 81.228 3.72363H91.1913C92.0267 3.72363 92.7038 4.40078 92.7038 5.23613C92.7038 6.07148 92.0267 6.74883 91.1913 6.74883Z" fill="#FCF9EB"/>
<path d="M91.1914 11.6303H77.1345C76.2992 11.6303 75.6218 10.9531 75.6218 10.1178C75.6218 9.28243 76.299 8.60529 77.1345 8.60529H91.1914C92.0267 8.60529 92.7039 9.28243 92.7039 10.1178C92.7039 10.9531 92.0267 11.6303 91.1914 11.6303Z" fill="#FCECA9"/>
<path d="M91.1914 16.5121H77.1345C76.2992 16.5121 75.6218 15.835 75.6218 14.9996C75.6218 14.1643 76.299 13.4871 77.1345 13.4871H91.1914C92.0267 13.4871 92.7039 14.1643 92.7039 14.9996C92.7041 15.8348 92.0267 16.5121 91.1914 16.5121Z" fill="#FCECA9"/>
<path d="M83.4327 84.1415C81.1474 79.2868 76.4095 72.2456 68.4085 73.1979C57.0292 74.5524 28.1825 76.0614 53.4839 99.6684C65.3315 98.279 75.8554 92.5633 83.4327 84.1415Z" fill="#47477F"/>
<path d="M3.94995 33.0895C6.7773 52.4168 30.2043 22.852 31.4349 16.3467C32.1714 12.4532 29.3578 10.2787 26.8601 9.13812C16.6572 14.127 8.49351 22.6387 3.94995 33.0895Z" fill="#47477F"/>
</svg>
