<svg width="30" height="30" viewBox="0 0 30 30" fill="none" xmlns="http://www.w3.org/2000/svg">
<path d="M23.8477 0H6.15234C2.75994 0 0 2.75994 0 6.15234V23.8477C0 27.2401 2.75994 30 6.15234 30H23.8477C27.2401 30 30 27.2401 30 23.8477V6.15234C30 2.75994 27.2401 0 23.8477 0ZM15 22.6172C13.9083 22.6172 12.8579 22.4721 11.875 22.2049L8.32031 24.0234L8.84625 20.8649C6.52793 19.3629 5.03906 17.0317 5.03906 14.4141C5.03906 9.88359 9.49875 6.21094 15 6.21094C20.5013 6.21094 24.9609 9.88359 24.9609 14.4141C24.9609 18.9445 20.5013 22.6172 15 22.6172Z" fill="white"/>
</svg>
