<svg width="100" height="100" viewBox="0 0 100 100" fill="none" xmlns="http://www.w3.org/2000/svg">
<g clip-path="url(#clip0)">
<path d="M41.6442 94.6811C41.6442 97.5247 43.9489 99.8302 46.7933 99.8302H53.6587C56.5023 99.8302 58.8078 97.5247 58.8078 94.6811V84.383H41.6442V94.6811Z" fill="#EBEBEB"/>
<path d="M33.5561 65.7721C32.0551 64.805 30.6396 63.7088 29.3272 62.4978C28.2067 66.8063 23.972 69.5384 19.5847 68.7841C15.1966 68.0298 12.1176 64.0415 12.4989 59.6056C12.8802 55.1697 16.5953 51.7655 21.048 51.7722C21.3103 51.7722 21.5625 51.8267 21.8131 51.8493C20.1864 48.0253 19.3475 43.9129 19.3484 39.7578H17.1636L15.9777 45.3988C15.8595 45.9611 15.4681 46.4271 14.9351 46.6399C14.4013 46.8536 13.797 46.7858 13.3244 46.4597L8.58178 43.1905L3.43271 48.3395L6.69362 53.0813C7.01962 53.5548 7.08751 54.159 6.8738 54.6921C6.66093 55.2259 6.19497 55.6173 5.63347 55.7346L0 56.9213V63.7867L5.64017 64.9726C6.20167 65.0908 6.66764 65.4821 6.88134 66.0151C7.09421 66.5481 7.02633 67.1532 6.70032 67.6259L3.43271 72.3685L8.58178 77.5176L13.3244 74.2558C13.797 73.9298 14.4021 73.8611 14.936 74.0748C15.4698 74.2877 15.8612 74.7545 15.9794 75.3168L17.1636 80.9503H24.029L25.2132 75.3084C25.3313 74.7453 25.7227 74.2793 26.2565 74.0664C26.7904 73.8527 27.3955 73.9206 27.8681 74.2474L32.6107 77.5176L37.9987 72.1297C37.4338 69.499 35.8323 67.2069 33.5561 65.7721Z" fill="#C9DFFF"/>
<path d="M81.1204 39.7577C81.1187 24.945 70.6035 12.2173 56.0573 9.42151C41.511 6.62573 27.0267 14.5471 21.534 28.3039C16.0414 42.0607 21.0848 57.7803 33.5561 65.7721C36.4139 67.5438 38.1696 70.6521 38.2115 74.0145V80.9503C38.2115 83.7938 40.5162 86.0993 43.3606 86.0993H57.0914C59.935 86.0993 62.2405 83.7938 62.2405 80.9503V74.1569C62.2841 70.715 64.075 67.532 66.9948 65.7084C75.8062 60.0196 81.1263 50.2461 81.1204 39.7577Z" fill="#FFB41F"/>
<path d="M91.7496 21.6002L97.1459 17.5532L90.9669 9.31422L85.5706 13.3612C84.4601 14.1934 82.9575 14.2747 81.7632 13.5674C80.569 12.8601 79.9186 11.5032 80.1139 10.1297L81.0668 3.45448L70.8717 1.99792L69.9189 8.67227C69.7236 10.0475 68.7188 11.1689 67.3737 11.5133C66.0286 11.8586 64.608 11.3591 63.775 10.2478L59.7288 4.85153L51.4907 11.0306L55.536 16.4269C56.3682 17.5381 56.4495 19.04 55.7422 20.2342C55.0348 21.4284 53.678 22.0788 52.3044 21.8835L45.6292 20.9306L44.1718 31.1257L50.8487 32.0786C52.2231 32.2747 53.3445 33.2795 53.6889 34.6246C54.0333 35.9697 53.5339 37.3902 52.4226 38.2232L47.028 42.2703L53.207 50.5084L58.6016 46.4631C59.7121 45.6301 61.2156 45.5479 62.4106 46.2552C63.6049 46.9626 64.2561 48.3202 64.06 49.6947L63.0987 56.3682L73.2937 57.8256L74.255 51.1487C74.4511 49.7743 75.456 48.6538 76.801 48.3093C78.1461 47.9641 79.5667 48.4644 80.3989 49.5748L84.4467 54.9694L92.6849 48.7904L88.6362 43.3958C87.8032 42.2853 87.721 40.7819 88.4284 39.5868C89.1357 38.3925 90.4933 37.7414 91.8678 37.9383L98.543 38.892L100 28.697L93.3252 27.7433C91.9516 27.5463 90.8311 26.5423 90.4858 25.1972C90.1414 23.853 90.64 22.4333 91.7496 21.6002ZM72.0869 41.925C65.4511 41.925 60.0724 36.5463 60.0724 29.9105C60.0724 23.2755 65.4511 17.896 72.0869 17.896C78.7227 17.896 84.1014 23.2755 84.1014 29.9105C84.1014 36.5463 78.7227 41.925 72.0869 41.925Z" fill="#1CC8EB"/>
<path d="M41.6442 89.532H58.8078V92.9648H41.6442V89.532Z" fill="#9E9E9E"/>
<path d="M48.5096 75.8013H51.9423V80.9503H48.5096V75.8013Z" fill="#FFAA00"/>
<path d="M51.9424 72.3685H48.5097C48.508 67.8304 45.7097 63.7624 41.4724 62.1382C33.0256 58.8354 27.1575 51.0582 26.301 42.0289C25.4445 32.9996 29.7446 24.2578 37.4196 19.4255L39.2407 22.3294C32.6602 26.4702 28.9719 33.9642 29.706 41.7054C30.4393 49.4458 35.4694 56.1134 42.7111 58.9444C48.2742 61.0722 51.9466 66.4124 51.9424 72.3685Z" fill="#FFAA00"/>
<path d="M84.5531 63.7867H93.1349C94.0828 63.7867 94.8513 64.5544 94.8513 65.5031C94.8513 66.451 94.0828 67.2195 93.1349 67.2195H84.5531C83.6053 67.2195 82.8368 66.451 82.8368 65.5031C82.8368 64.5544 83.6053 63.7867 84.5531 63.7867Z" fill="#FFAA00"/>
<path d="M81.1204 74.0858C81.7272 73.3575 82.8091 73.2586 83.5374 73.8653L91.199 80.2489C91.9272 80.8556 92.0261 81.9376 91.4194 82.6659C90.8118 83.3941 89.7298 83.493 89.0016 82.8863L81.34 76.5027C80.6117 75.896 80.5137 74.814 81.1204 74.0858Z" fill="#FFAA00"/>
<path d="M74.255 77.5176C75.2028 77.5176 75.9713 78.2852 75.9713 79.2339V87.8157C75.9713 88.7636 75.2028 89.5321 74.255 89.5321C73.3071 89.5321 72.5386 88.7636 72.5386 87.8157V79.2339C72.5386 78.2852 73.3071 77.5176 74.255 77.5176Z" fill="#FFAA00"/>
<path d="M1.70128 29.0925L12.1017 26.4945C13.0219 26.2649 13.9529 26.8239 14.1826 27.7433C14.4122 28.6626 13.8532 29.5937 12.933 29.8233L2.53264 32.4213C1.61245 32.651 0.681358 32.092 0.451728 31.1726C0.222099 30.2533 0.781088 29.3222 1.70128 29.0925Z" fill="#FFAA00"/>
<path d="M3.88359 10.5806C4.4342 9.80958 5.50608 9.63191 6.2771 10.1825L15.4975 16.7689C16.2693 17.3195 16.4478 18.3914 15.8972 19.1624C15.3466 19.9334 14.2747 20.1119 13.5037 19.5605L4.28334 12.9741C3.51149 12.4235 3.33298 11.3516 3.88359 10.5806Z" fill="#FFAA00"/>
<path d="M19.2554 0.27993C20.1739 0.0452719 21.1083 0.599232 21.343 1.51775L24.003 11.9223C24.2377 12.8408 23.6837 13.7761 22.7652 14.0108C21.8467 14.2454 20.9122 13.6906 20.6776 12.773L18.0175 2.36838C17.7829 1.44987 18.3368 0.514588 19.2554 0.27993Z" fill="#FFAA00"/>
</g>
<defs>
<clipPath id="clip0">
<rect width="100" height="99.9777" fill="white"/>
</clipPath>
</defs>
</svg>
