<svg width="30" height="30" viewBox="0 0 30 30" fill="none" xmlns="http://www.w3.org/2000/svg">
<g clip-path="url(#clip0)">
<path d="M27.9887 7.47057C26.6474 5.17254 24.8279 3.35304 22.5298 2.01173C20.2313 0.670485 17.7221 0 15.0004 0C12.279 0 9.76914 0.670485 7.47105 2.01173C5.17281 3.35284 3.35332 5.17234 2.01194 7.47057C0.670486 9.76893 0 12.2788 0 15C0 17.7214 0.670691 20.2309 2.01173 22.5294C3.35304 24.8274 5.17254 26.6469 7.47077 27.9883C9.76914 29.3295 12.2788 30.0001 15.0002 30.0001C17.7215 30.0001 20.2315 29.3295 22.5297 27.9883C24.8278 26.6474 26.6472 24.8274 27.9885 22.5294C29.3295 20.2311 29.9999 17.7212 29.9999 15C30 12.2786 29.3295 9.76859 27.9887 7.47057ZM17.5006 24.3751C17.5006 24.5572 17.4417 24.7071 17.3246 24.824C17.208 24.9411 17.0581 24.9996 16.876 24.9996H13.1256C12.9434 24.9996 12.7935 24.9411 12.6764 24.824C12.5591 24.707 12.5005 24.5572 12.5005 24.3751V20.6246C12.5005 20.4425 12.559 20.2926 12.6764 20.1757C12.7935 20.0588 12.9434 20.0003 13.1256 20.0003H16.876C17.0581 20.0003 17.208 20.0588 17.3246 20.1757C17.4417 20.2927 17.5006 20.4425 17.5006 20.6246V24.3751ZM22.2563 12.8319C22.0934 13.3137 21.9113 13.7078 21.7095 14.0137C21.5077 14.3197 21.2178 14.6323 20.8401 14.9511C20.4631 15.2701 20.1634 15.4981 19.9415 15.6351C19.7205 15.7716 19.4012 15.9575 18.985 16.1916C18.5552 16.4388 18.2007 16.7612 17.9209 17.1585C17.6409 17.5556 17.5009 17.8777 17.5009 18.1249C17.5009 18.3075 17.4419 18.4573 17.3248 18.5744C17.208 18.6914 17.0582 18.7499 16.876 18.7499H13.1258C12.9436 18.7499 12.7937 18.6914 12.6766 18.5744C12.5592 18.4573 12.5009 18.3075 12.5009 18.1249V17.4217C12.5009 16.5493 12.8425 15.7319 13.5261 14.9704C14.2098 14.2086 14.9618 13.6455 15.7822 13.2808C16.4068 12.9945 16.8497 12.7014 17.1101 12.402C17.3708 12.1025 17.501 11.705 17.501 11.2105C17.501 10.7806 17.2567 10.3966 16.7683 10.0578C16.2799 9.71941 15.7237 9.55016 15.0985 9.55016C14.4212 9.55016 13.8615 9.70648 13.4187 10.0191C12.9889 10.3314 12.4291 10.9305 11.7389 11.8158C11.6217 11.9721 11.4589 12.0505 11.2506 12.0505C11.0943 12.0505 10.9706 12.0115 10.8795 11.9336L8.30154 9.98032C8.00211 9.74588 7.95005 9.47258 8.14516 9.16002C9.81203 6.38654 12.2273 4.99981 15.3913 4.99981C16.5243 4.99981 17.6313 5.26681 18.712 5.80075C19.7926 6.33442 20.6944 7.08973 21.4173 8.06642C22.1393 9.04276 22.5012 10.1041 22.5012 11.25C22.5003 11.8229 22.4186 12.35 22.2563 12.8319Z" fill="white"/>
</g>
<defs>
<clipPath id="clip0">
<rect width="30" height="30" fill="white"/>
</clipPath>
</defs>
</svg>
