<svg width="110" height="110" viewBox="0 0 110 110" fill="none"
    xmlns="http://www.w3.org/2000/svg">
    <g clip-path="url(#clip0)">
        <path d="M56.2134 58.644C54.9799 58.644 53.98 57.6441 53.98 56.4106V36.0409C53.98 34.8074 54.9799 33.8074 56.2134 33.8074C57.4469 33.8074 58.4468 34.8074 58.4468 36.0409V56.4106C58.4468 57.6441 57.4469 58.644 56.2134 58.644Z" fill="#DBD8DD"/>
        <path d="M76.2545 22.5001C76.237 33.0114 68.024 41.6845 57.5293 42.2745C57.3402 42.2745 57.1389 42.2852 56.9484 42.2852C56.7927 42.2959 56.6252 42.2959 56.4681 42.2959C56.3111 42.2959 56.1329 42.2959 55.9772 42.2852C55.7759 42.2852 55.5975 42.2745 55.407 42.2745H55.3963C44.4769 41.6899 36.0986 32.3641 36.6831 21.4447C37.2676 10.5252 46.5935 2.14699 57.5129 2.73152C68.021 3.29397 76.2532 11.9775 76.2545 22.5001Z" fill="#EEEFEE"/>
        <path d="M51.6995 27.9277V31.2157C55.8647 33.4184 56.7875 33.3419 61.2238 31.2157V27.9277H51.6995Z" fill="#F4BB87"/>
        <path d="M71.1624 36.4457C67.5353 40.0597 62.7027 42.2089 57.5896 42.4823L57.5655 42.5064H55.3615L55.3494 42.4823H55.3373C50.2211 42.1991 45.3874 40.0467 41.7538 36.4337C42.4167 35.2753 43.4045 34.3364 44.595 33.7334L51.7047 29.9948L55.9021 32.07L56.2093 32.2229L56.4575 32.3411L56.7056 32.2229L57.0128 32.07L61.2222 29.9948L68.332 33.7334C69.5229 34.338 70.5078 35.2819 71.1624 36.4457Z" fill="#414451"/>
        <path d="M56.9766 42.5064L61.2249 29.9895L56.4629 32.3383L51.6995 29.9895L55.9491 42.5064H56.9766Z" fill="#EEEFEE"/>
        <path d="M57.0504 34.0446H55.8754L54.7578 32.0741L58.1653 32.0686L57.0504 34.0446Z" fill="#DA364C"/>
        <path d="M56.9739 42.5064L58.1664 38.9812L57.0504 34.0419H55.8741L54.7578 38.9812L55.9505 42.5064H56.9739Z" fill="#EF5261"/>
        <path d="M51.6995 29.9895L56.4629 32.0686L52.6653 34.368L51.6995 29.9895Z" fill="#DBD8DD"/>
        <path d="M61.2249 29.9895L56.4629 32.0686L60.2591 34.368L61.2249 29.9895Z" fill="#DBD8DD"/>
        <path d="M55.9505 42.4943V42.5064H55.3615L55.3494 42.4823H55.3373L49.9716 35.0896L50.845 33.7924L48.7698 33.6624L51.7061 29.9948L52.2132 31.4811L53.0971 34.0983L54.7592 38.9812L55.9505 42.4943Z" fill="#575B6D"/>
        <path d="M62.0822 33.7924L62.9435 35.0896L57.5896 42.4823L57.5655 42.5064H56.9766V42.4943L58.1678 38.9812L59.8299 34.1104L60.726 31.457L61.2222 29.9948L64.1574 33.6624L62.0822 33.7924Z" fill="#575B6D"/>
        <path d="M49.8738 20.8797V24.0388C49.7247 24.1269 49.5546 24.1734 49.3814 24.1729C48.6865 24.1729 48.1218 23.3949 48.1218 22.4478C48.1218 21.5006 48.6865 20.7374 49.3814 20.7374C49.5553 20.7395 49.7256 20.7886 49.8738 20.8797Z" fill="#F4BB87"/>
        <path d="M63.0548 20.8797V24.0388C63.2039 24.1269 63.3739 24.1734 63.5472 24.1729C64.2421 24.1729 64.8068 23.3949 64.8068 22.4478C64.8068 21.5006 64.2421 20.7374 63.5472 20.7374C63.373 20.7395 63.203 20.7886 63.0548 20.8797Z" fill="#F4BB87"/>
        <path d="M50.928 16.4354C50.5584 16.8135 50.2424 17.2405 49.9891 17.7044C49.6035 18.6636 49.4037 19.6874 49.4002 20.7213C49.2552 22.3403 49.4845 23.971 50.0697 25.4874C50.3644 26.3421 50.8502 27.1186 51.4903 27.7573C52.2093 28.4979 53.0108 29.1537 53.8794 29.7118C55.4545 30.7236 57.476 30.7204 59.0479 29.7039C59.9115 29.1428 60.7121 28.4902 61.4357 27.7575C62.0742 27.1206 62.5551 26.3433 62.8401 25.4877C63.4353 23.9738 63.6684 22.3415 63.5202 20.7215C63.5168 19.6877 63.317 18.6638 62.9314 17.7046C62.7607 17.2558 62.5353 16.8294 62.2606 16.4356C58.4227 14.8553 54.6316 14.4474 50.928 16.4354Z" fill="#FED19A"/>
        <path d="M63.5055 20.2344C63.5055 20.2344 67.1811 13.2093 61.6677 11.2722C61.6677 11.2722 56.4749 5.29742 50.0829 12.0771C50.0829 12.0771 46.6891 16.2772 49.4121 20.5564C49.4121 20.5564 50.6476 16.398 52.1661 16.1552C55.0093 17.5284 58.3362 17.4688 61.1282 15.9942C61.5081 17.6021 62.3319 19.0714 63.5055 20.2344Z" fill="#414451"/>
        <path d="M56.4681 2.60754e-06C44.0416 -0.00591553 33.9633 10.0629 33.9573 22.4894C33.9514 34.9159 44.0202 44.9942 56.4467 45.0002C68.8732 45.0061 78.9516 34.9373 78.9575 22.5108C78.9575 22.5071 78.9575 22.5037 78.9575 22.5001C78.9591 10.0772 68.8912 0.00455502 56.4681 2.60754e-06ZM70.3817 36.557C66.9471 39.9795 62.371 42.0151 57.5293 42.2742C57.3401 42.2742 57.1389 42.2849 56.9484 42.2849C56.7927 42.2956 56.6252 42.2956 56.4681 42.2956C56.3111 42.2956 56.1328 42.2956 55.9771 42.2849C55.7759 42.2849 55.5975 42.2742 55.407 42.2742H55.3963C44.4588 41.7067 36.0524 32.38 36.6198 21.4426C37.1873 10.5052 46.514 2.09867 57.4514 2.66612C68.3888 3.23358 76.7953 12.5603 76.2279 23.4977C75.9723 28.4269 73.8877 33.0833 70.3817 36.557Z" fill="#575B6D"/>
        <path d="M85.3361 72.7064C84.1026 72.7064 83.1027 71.7065 83.1027 70.473V58.6415H26.9081V70.4691C26.9081 71.7026 25.9082 72.7026 24.6747 72.7026C23.4412 72.7026 22.4413 71.7026 22.4413 70.4691V56.4081C22.4413 55.1746 23.4412 54.1747 24.6747 54.1747H85.3363C86.5698 54.1747 87.5697 55.1746 87.5697 56.4081V70.4691C87.572 71.7026 86.5739 72.7044 85.3402 72.7066C85.3388 72.7064 85.3374 72.7064 85.3361 72.7064Z" fill="#DBD8DD"/>
        <path d="M44.4664 87.4986C44.4495 98.0104 36.2363 106.684 25.7412 107.274C25.552 107.274 25.3508 107.285 25.1603 107.285C25.0046 107.296 24.8371 107.296 24.68 107.296C24.5229 107.296 24.3447 107.296 24.189 107.285C23.9878 107.285 23.8093 107.274 23.6188 107.274H23.6081C12.6887 106.69 4.31044 97.3639 4.89497 86.4445C5.4795 75.5251 14.8053 67.1468 25.7248 67.7313C36.2322 68.2938 44.4641 76.9764 44.4664 87.4986Z" fill="#EEEFEE"/>
        <path d="M19.9111 92.9275V96.2153C24.0763 98.418 24.9991 98.3415 29.4354 96.2153V92.9273H19.9111V92.9275Z" fill="#F4BB87"/>
        <path d="M39.3743 101.444C35.7471 105.058 30.9145 107.208 25.8015 107.481L25.7773 107.505H23.5733L23.5612 107.481H23.5492C18.4325 107.198 13.598 105.046 9.96429 101.432C10.6274 100.273 11.6155 99.3339 12.8068 98.7307L19.9166 94.9921L24.1139 97.0673L24.4212 97.2202L24.6693 97.3384L24.9174 97.2202L25.2247 97.0673L29.4341 94.9921L36.5438 98.7307C37.7347 99.3355 38.7196 100.28 39.3743 101.444Z" fill="#2CBFAE"/>
        <path d="M25.1882 107.506L29.4368 94.9894L24.6745 97.3368L19.9111 94.9894L24.1608 107.506H25.1882Z" fill="#EEEFEE"/>
        <path d="M25.2623 99.0444H24.0871L22.9697 97.0739L26.3769 97.0673L25.2623 99.0444Z" fill="#DA364C"/>
        <path d="M25.1858 107.506L26.3783 103.98L25.2623 99.0419H24.0857L22.9697 103.98L24.1622 107.506H25.1858Z" fill="#EF5261"/>
        <path d="M19.9111 94.9894L24.6745 97.0673L20.8769 99.3679L19.9111 94.9894Z" fill="#DBD8DD"/>
        <path d="M29.4368 94.9894L24.6746 97.0673L28.4708 99.3679L29.4368 94.9894Z" fill="#DBD8DD"/>
        <path d="M24.1621 107.494V107.506H23.5733L23.5612 107.482H23.5492L18.1832 100.088L19.0566 98.7922L16.9814 98.6622L19.9177 94.9946L20.4248 96.4809L21.3089 99.0981L22.971 103.98L24.1621 107.494Z" fill="#16A897"/>
        <path d="M30.2938 98.7922L31.1551 100.088L25.8015 107.482L25.7774 107.506H25.1883V107.494L26.3797 103.98L28.0417 99.1102L28.9377 96.4568L29.4341 94.9946L32.369 98.6622L30.2938 98.7922Z" fill="#16A897"/>
        <path d="M18.0854 85.8796V89.0387C17.9363 89.1268 17.7662 89.1733 17.593 89.1728C16.8981 89.1728 16.3334 88.3948 16.3334 87.4477C16.3334 86.5005 16.8981 85.7373 17.593 85.7373C17.7669 85.7394 17.9372 85.7885 18.0854 85.8796Z" fill="#F4BB87"/>
        <path d="M31.2623 85.8796V89.0387C31.4114 89.1268 31.5815 89.1733 31.7547 89.1728C32.4496 89.1728 33.0143 88.3948 33.0143 87.4477C33.0143 86.5005 32.4496 85.7373 31.7547 85.7373C31.5808 85.7394 31.4107 85.7885 31.2623 85.8796Z" fill="#F4BB87"/>
        <path d="M19.1397 81.4352C18.7701 81.8133 18.4541 82.2403 18.2008 82.7042C17.8152 83.6634 17.6153 84.6872 17.6119 85.7211C17.4653 87.3397 17.6925 88.9704 18.2759 90.4872C18.5707 91.3419 19.0564 92.1184 19.6965 92.7571C20.4173 93.4961 21.2208 94.1501 22.091 94.7062C23.6662 95.718 25.6877 95.7148 27.2596 94.6982C28.1232 94.1371 28.9238 93.4845 29.6474 92.7518C30.2863 92.1149 30.7677 91.3378 31.0532 90.482C31.6475 88.9688 31.8801 87.3376 31.7319 85.7186C31.7285 84.6847 31.5287 83.6609 31.1431 82.7017C30.9724 82.2528 30.747 81.8265 30.4723 81.4327C26.6344 79.8551 22.8436 79.4472 19.1397 81.4352Z" fill="#FED19A"/>
        <path d="M31.7171 85.2328C31.7171 85.2328 35.3927 78.2078 29.8793 76.2707C29.8793 76.2707 24.6865 70.2959 18.2945 77.0756C18.2945 77.0756 14.9007 81.2756 17.6237 85.5549C17.6237 85.5549 18.8592 81.3965 20.3777 81.1536C23.2209 82.5269 26.5478 82.4672 29.3398 80.9927C29.7199 82.6006 30.5435 84.0699 31.7171 85.2328Z" fill="#414451"/>
        <path d="M24.6813 64.9999C12.2548 64.9933 2.17579 75.0614 2.16919 87.4879C2.16259 99.9144 12.2307 109.993 24.6572 110C37.0837 110.007 47.1628 99.9385 47.1694 87.512C47.1694 87.5075 47.1694 87.5032 47.1694 87.4986C47.17 75.0769 37.1031 65.0051 24.6813 64.9999ZM38.5935 101.557C35.159 104.98 30.5829 107.015 25.7411 107.274C25.552 107.274 25.3508 107.285 25.1603 107.285C25.0046 107.296 24.837 107.296 24.68 107.296C24.5229 107.296 24.3447 107.296 24.189 107.285C23.9878 107.285 23.8093 107.274 23.6188 107.274H23.6081C12.6707 106.707 4.26421 97.3801 4.83167 86.4427C5.39913 75.5053 14.7259 67.0988 25.6633 67.6662C36.6007 68.2337 45.0072 77.5605 44.4397 88.4979C44.1839 93.4268 42.0993 98.0832 38.5935 101.557Z" fill="#575B6D"/>
        <path d="M105.129 87.4986C105.113 98.0104 96.8993 106.684 86.4042 107.274C86.215 107.274 86.0138 107.285 85.8233 107.285C85.6676 107.296 85.5001 107.296 85.343 107.296C85.186 107.296 85.0077 107.296 84.852 107.285C84.6508 107.285 84.4724 107.274 84.2819 107.274H84.2712C73.3517 106.69 64.9735 97.3639 65.558 86.4445C66.1425 75.5251 75.4684 67.1468 86.3878 67.7313C96.895 68.2938 105.127 76.9764 105.129 87.4986Z" fill="#EEEFEE"/>
        <path d="M80.5728 92.9275V96.2153C84.738 98.418 85.6608 98.3415 90.0971 96.2153V92.9273H80.5728V92.9275Z" fill="#F4BB87"/>
        <path d="M100.036 101.444C96.4087 105.058 91.5761 107.208 86.463 107.481L86.4389 107.505H84.2348L84.2228 107.481H84.2107C79.094 107.198 74.2596 105.046 70.6259 101.432C71.2889 100.273 72.277 99.3339 73.4684 98.7307L80.5781 94.9921L84.7754 97.0673L85.0827 97.2202L85.3308 97.3384L85.5789 97.2202L85.8862 97.0673L90.0956 94.9921L97.2054 98.7307C98.3963 99.3355 99.3812 100.28 100.036 101.444Z" fill="#69B0EE"/>
        <path d="M85.8499 107.506L90.0985 94.9894L85.3362 97.3368L80.5728 94.9894L84.8224 107.506H85.8499Z" fill="#EEEFEE"/>
        <path d="M85.9238 99.0444H84.7486L83.6312 97.0739L87.0385 97.0673L85.9238 99.0444Z" fill="#DA364C"/>
        <path d="M85.8473 107.506L87.0398 103.98L85.9249 99.0419H84.7472L83.6312 103.98L84.8237 107.506H85.8473Z" fill="#EF5261"/>
        <path d="M80.5728 94.9894L85.3362 97.0673L81.5385 99.3679L80.5728 94.9894Z" fill="#DBD8DD"/>
        <path d="M90.0983 94.9894L85.3361 97.0673L89.1323 99.3679L90.0983 94.9894Z" fill="#DBD8DD"/>
        <path d="M84.8237 107.494V107.506H84.2349L84.2228 107.482H84.2107L78.8462 100.088L79.7182 98.7922L77.6429 98.6622L80.5793 94.9946L81.0864 96.4809L81.9705 99.0981L83.6339 103.98L84.8237 107.494Z" fill="#419BE9"/>
        <path d="M90.9553 98.7922L91.8167 100.088L86.463 107.482L86.44 107.506H85.8498V107.494L87.0412 103.98L88.7033 99.1102L89.6005 96.4568L90.0956 94.9946L93.0308 98.6622L90.9553 98.7922Z" fill="#419BE9"/>
        <path d="M78.7497 85.8796V89.0387C78.6006 89.1268 78.4306 89.1733 78.2573 89.1728C77.5624 89.1728 76.9977 88.3948 76.9977 87.4477C76.9977 86.5005 77.5624 85.7373 78.2573 85.7373C78.4313 85.7394 78.6015 85.7885 78.7497 85.8796Z" fill="#F4BB87"/>
        <path d="M91.9242 85.8796V89.0387C92.0733 89.1268 92.2433 89.1733 92.4165 89.1728C93.1115 89.1728 93.6762 88.3948 93.6762 87.4477C93.6762 86.5005 93.1115 85.7373 92.4165 85.7373C92.2424 85.7394 92.0724 85.7885 91.9242 85.8796Z" fill="#F4BB87"/>
        <path d="M79.8013 81.4352C79.4316 81.8133 79.1157 82.2403 78.8623 82.7042C78.4767 83.6634 78.2769 84.6872 78.2735 85.7211C78.1269 87.3397 78.3541 88.9703 78.9374 90.4872C79.2327 91.3422 79.7189 92.1183 80.3594 92.757C81.08 93.4961 81.8829 94.1501 82.7526 94.7062C84.3277 95.7179 86.3492 95.7147 87.9212 94.6982C88.7848 94.1371 89.5853 93.4845 90.3089 92.7518C90.9479 92.1149 91.4293 91.3378 91.7147 90.482C92.3099 88.9681 92.543 87.3358 92.3948 85.7158C92.3914 84.682 92.1916 83.6581 91.806 82.6989C91.6353 82.2501 91.4099 81.8237 91.1352 81.4299C87.2959 79.855 83.5051 79.4471 79.8013 81.4352Z" fill="#FED19A"/>
        <path d="M92.3788 85.2328C92.3788 85.2328 96.0544 78.2078 90.541 76.2707C90.541 76.2707 85.3482 70.2959 78.9562 77.0756C78.9562 77.0756 75.5624 81.2756 78.2854 85.5549C78.2854 85.5549 79.5209 81.3965 81.0394 81.1536C83.8826 82.5269 87.2095 82.4672 90.0015 80.9927C90.3816 82.6006 91.2051 84.0699 92.3788 85.2328Z" fill="#414451"/>
        <path d="M85.343 64.9999C72.9165 64.9933 62.8374 75.0614 62.8308 87.4879C62.8242 99.9144 72.8923 109.993 85.3188 110C97.7453 110.007 107.824 99.9385 107.831 87.512C107.831 87.5079 107.831 87.5041 107.831 87.5C107.832 75.0776 97.7654 65.0051 85.343 64.9999ZM99.2551 101.557C95.8206 104.98 91.2445 107.015 86.4028 107.274C86.2136 107.274 86.0124 107.285 85.8219 107.285C85.6662 107.296 85.4987 107.296 85.3416 107.296C85.1845 107.296 85.0063 107.296 84.8506 107.285C84.6494 107.285 84.471 107.274 84.2804 107.274H84.2697C73.3323 106.707 64.9258 97.3801 65.4933 86.4427C66.0608 75.5053 75.3875 67.0988 86.3249 67.6662C97.2623 68.2337 105.669 77.5605 105.101 88.4979C104.846 93.4268 102.761 98.0832 99.2551 101.557Z" fill="#575B6D"/>
    </g>
    <defs>
        <clipPath id="clip0">
            <rect width="110" height="110" fill="white"/>
        </clipPath>
    </defs>
</svg>
